#format: frame checksums
#version: 2
#hash: MD5
#extradata 0,                              47, da1ebf7f39a801230d2bcba50b3ec492
#tb 0: 1/51200
#media_type 0: video
#codec_id 0: mpeg4
#dimensions 0: 352x288
#sar 0: 1/1
#tb 1: 1/44100
#media_type 1: audio
#codec_id 1: ac3
#sample_rate 1: 44100
#channel_layout 1: 4
#channel_layout_name 1: mono
#stream#, dts,        pts, duration,     size, hash
1,       -256,       -256,     1536,      416, e3bd415f62aa927e9273151fdf21ebce
0,          0,          0,     2048,    15824, 3a4cc2c2e38504cd4a336a43c8793566
1,       1280,       1280,     1536,      418, 6e79527e2af3448d7a0e4a8e29cd9722
0,       2048,       2048,     2048,    13321, 1c5627081495c2b8ee9205c8db819125
1,       2816,       2816,     1536,      418, cf49595ac385e497672e5a814f7bcd79
0,       4096,       4096,     2048,    11462, 7ce15c296f66af71a5d28b927bb0699e
1,       4352,       4352,     1536,      418, 846982243d330ab782f0120988d52ade
0,       6144,       6144,     2048,    11654, 2dbe71f6e3687da4365b154499dbc08f
1,       5888,       5888,     1536,      418, 77b2d15948434a4831e30c47b8214591
0,       8192,       8192,     2048,     6100, 697a62dfa0463ffa9251f88638287f3b
1,       7424,       7424,     1536,      418, 4fce87d5cce10f6d0268fb398c385af5
0,      10240,      10240,     2048,     2063, b7d9bcb7781b6c4041ae5e9f96f4d471
1,       8960,       8960,     1536,      418, 963f2dac9af4672809521f2174b78f10
1,      10496,      10496,     1536,      418, eb7a20193c157b02f7b5d5abf802af24
0,      12288,      12288,     2048,     1585, 11b681604bda51a75c7ea521068d7c27
1,      12032,      12032,     1536,      418, 219b234a1e01d3538bfe09fda58b3289
0,      14336,      14336,     2048,     1475, 9fa1fced5a744fca0feffd06865c7e3a
1,      13568,      13568,     1536,      418, ef7bd3e9c13f03aa6676629101a9a8a0
0,      16384,      16384,     2048,     1304, f4cbd113b49fcdd7391e8a570f10c40d
1,      15104,      15104,     1536,      418, c5dda974df7e418d9036dff134aad2ae
0,      18432,      18432,     2048,     1390, 08ac45e537349a7572360357108701d6
1,      16640,      16640,     1536,      418, 48e7a9f574654dd95a325cfec5072254
0,      20480,      20480,     2048,     1207, d5af6f80554f1d3f59da04fba9ff149c
1,      18176,      18176,     1536,      418, 737d867e328377a3e6623f77f646ea61
0,      22528,      22528,     2048,     1317, 23c5b46737675b99f7857c772477ac92
1,      19712,      19712,     1536,      418, 5e2a004ad90ba069cecd9fdc1652388c
0,      24576,      24576,     2048,     9516, 20e2e4a64f11dbfb58ca4b97d8d9e6d5
1,      21248,      21248,     1536,      418, c694e51e609bdd00749a04294cbd60fb
1,      22784,      22784,     1536,      418, 6b787ffae0063d9910deebc8b3e98fd4
0,      26624,      26624,     2048,      858, 5cc087a6d5f7dff149f25c32d66c1a58
1,      24320,      24320,     1536,      418, eb6d62198a5472a1c179d42cde60b869
0,      28672,      28672,     2048,     1146, 7b2a5417f675fddde6c3fccb5256f7de
1,      25856,      25856,     1536,      418, 70a6c8e61e8d75f7a310bc7294ad38f6
0,      30720,      30720,     2048,     1273, fec0124dd40536b06ff5cb4f9ee57427
1,      27392,      27392,     1536,      418, 6847924a11575b3628ccdfd81a2fb1dc
0,      32768,      32768,     2048,     1342, 83fcf03894414225764fe4606e77fed9
1,      28928,      28928,     1536,      418, 6f76bbe03d8b4e0080226247e0e54f96
0,      34816,      34816,     2048,     1109, 43ccf63beb6a392f09edd8ae47639f33
1,      30464,      30464,     1536,      418, c946a8d690aa31fde929678b594cc432
0,      36864,      36864,     2048,     1143, 9b1b76b633679afdd0c57a47fd9cb461
1,      32000,      32000,     1536,      418, 3add3833b86a38c229faf8e602f83dcb
0,      38912,      38912,     2048,     1221, 74e3bf875ae55dc7c756e3102889985f
1,      33536,      33536,     1536,      418, cb51e6a41f5c4a5f01dd94f58210112b
1,      35072,      35072,     1536,      418, 66c3570cb8c11386b0601fe4a6eb7ee0
0,      40960,      40960,     2048,     1193, 62366a05aa12bb99abf8428fa7859aa6
1,      36608,      36608,     1536,      418, 8b986c15b9ab86432c43cedd1a182e8d
0,      43008,      43008,     2048,     1270, 44a2d2cc9bff3b86eb74d08cfb2add7e
1,      38144,      38144,     1536,      418, 0dd29cc7f63f2afac3eec5e5944165e7
0,      45056,      45056,     2048,     1068, 5fc66a8b05d70e00df4e55b50144f37e
1,      39680,      39680,     1536,      418, c4c14deb03d5048f8c6101260c617fae
0,      47104,      47104,     2048,     1128, 74da79e4645ad9257c1db174de9e47a3
1,      41216,      41216,     1536,      418, 4a3480d888fa0dd49a7bbf2669b5d3ed
0,      49152,      49152,     2048,     9724, 91bc413e47961f3c58b3a62b0a35a725
1,      42752,      42752,     1536,      418, aaeabe149b9185a6f09c271eb2c656dd
0,      51200,      51200,     2048,      791, b2104ecfda6cbfef18d5510b77f44224
1,      44288,      44288,     1536,      418, 0995488ad1bb84ec4a3e738b568484a4
1,      45824,      45824,     1536,      418, baa39bdfd9f47f7d312312985f59fb72
0,      53248,      53248,     2048,     1008, 0ea692ed90a1ddc5a453a1294b85819a
1,      47360,      47360,     1536,      418, c25bac736a8c356d0a0f9c9299f88880
0,      55296,      55296,     2048,     1139, 1e0ba3e2cce5b45f7496daa06f71716d
1,      48896,      48896,     1536,      418, 85378fd6c8b49a1f4c5490ab1e4013ca
0,      57344,      57344,     2048,     1039, 7e23be81c75cebe22a9c6c08d326513b
1,      50432,      50432,     1536,      418, 528e28031145f07336cd2a1b9b324ca6
0,      59392,      59392,     2048,     1069, 8da7d9d85333d18f29fc27396603cac8
1,      51968,      51968,     1536,      418, cc9b907fc92fffc61f7e41cdb863d586
0,      61440,      61440,     2048,     1133, a847204db7f096e2587557bc1c093e2e
1,      53504,      53504,     1536,      418, fe2f2ca279b14d7053349111578b48c0
0,      63488,      63488,     2048,      988, dbea5c64e24bef364f0d7d1774bf7554
1,      55040,      55040,     1536,      418, 5f2c6037aa4b89572a4ed712082ae2ab
0,      65536,      65536,     2048,     1009, 1caa3889676605f2177494bbaf3481ef
1,      56576,      56576,     1536,      418, 17a096694df972c2ef3a9abbe0a9cd6a
1,      58112,      58112,     1536,      418, c96a64bbfd1aae269e44bfdaea7c8a9c
0,      67584,      67584,     2048,     1107, 43811ad7091d2b9a30644f812938f323
1,      59648,      59648,     1536,      418, 5f9297244e107134c49fc4982f5a7c1f
0,      69632,      69632,     2048,     1191, 0dce9221ed025767c67fec5f7840af91
1,      61184,      61184,     1536,      418, da740d2d75b51d6e28bcb068f6a90d41
0,      71680,      71680,     2048,     1147, 00270ca11c80875d4670a5b64b4aad64
1,      62720,      62720,     1536,      418, 76e6bbbbfa0692659d0d84a30dcfff34
0,      73728,      73728,     2048,     8426, 3d8057fcb27ddc70720a3955571c4ac0
1,      64256,      64256,     1536,      418, 0bd304182f1693b18c46b0faa682b159
0,      75776,      75776,     2048,      693, b2073d9452b98ca62d4708ea2d5a0730
1,      65792,      65792,     1536,      418, ecf7bd4ba9161338ce2cefc1fdd06098
0,      77824,      77824,     2048,      890, 617e1c3312a14a9732789c4f5b9f0488
1,      67328,      67328,     1536,      418, 4953c0e441ca0ca2e1970b8b31d6c70e
0,      79872,      79872,     2048,      958, ba070283ceda704a7e7ee256ad75690e
1,      68864,      68864,     1536,      418, 4eb7f24aa46b8f0e6b47d0ca6ec0d56d
1,      70400,      70400,     1536,      418, df4d73a6acccd3be6663188f4baab996
0,      81920,      81920,     2048,     1036, 62c4213ff08e97cf82d1b6350f49e5e4
1,      71936,      71936,     1536,      418, 5e60f266106b86f19749b64d86b11f43
0,      83968,      83968,     2048,     1021, 468fca432044d4653991ed76f7fdb161
1,      73472,      73472,     1536,      418, cedea148c5f7ddba6f0fbcbe17e6bfbb
0,      86016,      86016,     2048,     1021, e439e670c4fd699f831d6da814f35623
1,      75008,      75008,     1536,      416, 97655498b413a59b3f0f6bdc25f69084
0,      88064,      88064,     2048,     1026, e4ad69687a8912a27ceb8069b567a1d0
1,      76544,      76544,     1536,      418, 0bea3f23db7aafefe50710310af25a9b
0,      90112,      90112,     2048,      945, 83534c6c2da202376387f86b44ad3fa8
1,      78080,      78080,     1536,      418, e763b383810d9a4645901c0d93f98a32
0,      92160,      92160,     2048,      998, b575ba085bb01752af6e15ba896f82c4
1,      79616,      79616,     1536,      418, f090bb15688066a9c5129348f86245e7
0,      94208,      94208,     2048,     1019, 7d6ff68f2bfc7627a3a9706a8c9035b3
1,      81152,      81152,     1536,      418, beb8658ede31b44326de936b28a2d740
1,      82688,      82688,     1536,      418, 53987c0214550f387ce03093b83f4225
0,      96256,      96256,     2048,      978, b62d6ca4a21a565071fc70c3890485f5
1,      84224,      84224,     1536,      418, d3c37c202144070892528cc0a0ff3112
0,      98304,      98304,     2048,     8690, 40627c6e6f397670bda29319b2920a6d
1,      85760,      85760,     1536,      418, cf52ea7fc69e4c5bc8f75b354dfe60af
0,     100352,     100352,     2048,      639, 2eabe65d77af690a6e0b7209d8a51cf8
1,      87296,      87296,     1536,      418, 78ab22657a1b6c8a0e5b8612ceb8081d
